# xmcd
#
# Track frame offsets:
#	150
#	10617
#	23372
#	34715
#	46692
#	59440
#	71432
#	81952
#	93730
#	103390
#	114975
#	126825
#	138347
#	150705
#	162115
#	172007
#	182277
#	195645
#	208337
#	220257
#
# Disc length: 3105
#
# Revision: 3
# Processed by: cddbd v1.5.1PL0 Copyright (c) Steve Scherf et al.
# Submitted via: audiograbber 1.82.02
# Normalized: r2:DSETVAR1
#
DISCID=0c0c1f14
DTITLE=Various Artist - Country Classics - Disc 1
DYEAR=1900
DGENRE=Country
TTITLE0=Everly Brothers - Bye Bye Love
TTITLE1=Bobby Bare - Detroit City
TTITLE2=Don Gibson - Oh Lonesome Me
TTITLE3=Willie Nelson - Funny How Time Slips Away
TTITLE4=Patsy Cline - I Fall to Pieces
TTITLE5=Eddy Arnold - Make the World Go Away
TTITLE6=Statler Brothers - Flowers on the Wall
TTITLE7=Tennessee Ernie Ford - Sixteen Tons
TTITLE8=Ned Miller - From a Jack to a King
TTITLE9=Jack Greene - There Goes My Everything
TTITLE10=Skeeter Davis - The End of the World
TTITLE11=Ray Price - Crazy Arms
TTITLE12=Johnny Cash - I Walk the Line
TTITLE13=Johnny Horton - The Battle of New Orleans
TTITLE14=George Hamilton IV - Abilene
TTITLE15=Jimmie Rodgers - Honeycomb
TTITLE16=David Houston - Almost Persuaded
TTITLE17=George Jones - She Thinks I Still Care
TTITLE18=Brenda Lee - I'm Sorry
TTITLE19=Browns - The Three Bells
EXTD=DVC 2-1064-1 HD 2020-1
EXTT0=Everly Brothers
EXTT1=Bobby Bare
EXTT2=Don Gibson
EXTT3=Willie Nelson
EXTT4=Patsy Cline
EXTT5=Eddy Arnold
EXTT6=Statler Brothers
EXTT7=Tennessee Ernie Ford
EXTT8=Ned Miller
EXTT9=Jack Greene
EXTT10=Skeeter Davis
EXTT11=Ray Price
EXTT12=Johnny Cash
EXTT13=Johnny Horton
EXTT14=George Hamilton IV
EXTT15=Jimmie Rogers
EXTT16=David Houston
EXTT17=George Jones
EXTT18=Brenda Lee
EXTT19=The Browns
PLAYORDER=
